<svg xmlns="http://www.w3.org/2000/svg" xml:space="preserve" fill-rule="evenodd" stroke-linejoin="round" stroke-miterlimit="2" clip-rule="evenodd" viewBox="0 0 252 252">
  <g fill-rule="nonzero">
    <path fill="#5cfceb" d="M141.088 228.226c-10.652-10.972-10.653-10.964-18.12-12.213C30.779 200.587 3.1 79.225 80.232 29.282c77.47-50.16 171.457 30.73 138.27 114.815-8.709 22.066-36.829 42.694-59.108 46.614-3.351.59-3.358.545-3.626 24.154-.333 29.364.298 28.789-14.68 13.361ZM131 180.629c-1.942-11.204 0-11.371-4.911-12.023C66.81 160.743 70.84 63.5 130.445 63.5c55.539 0 64.68 73.806 9.997 80.712-9.634 1.217-9.242 1.174-9.049 4.752.188 3.495.59 7.249.596 11.786.029 21.644 49.765.405 62.887-26.904C223.6 74.067 154.698 13.813 96.5 48.629c-58.917 35.246-43.361 125.278 24 141.867 8.532 2.101 12.459 1.431 10.5-9.867Zm0-48.552c0-10.805 0-10.805 4.606-11.436 24.465-3.354 20.806-33.709-4.052-33.619-29.088.105-34.637 47.003-6.554 55.388 6.073 1.813 6 1.938 6-10.333Z"/>
    <path d="M151.5 239.051c-2.019-.83-14.605-13.264-18.467-18.244-1.539-1.985-3.33-2.864-6.811-3.345C2.265 200.343 6.167 14.501 130.5 13.685c107.02-.703 133.529 157.82 29.75 177.908-3.25.63-3.25.63-3.25 23.318 0 25.232-.243 26.301-5.5 24.14Zm3.731-25.52c.269-22.907.269-22.907 5.769-24.288 108.483-27.233 65.607-191.457-45.074-172.64C4.532 35.541 13.396 201.171 126.57 215.496c4.845.614 5.377 1.001 12 8.741 15.788 18.45 16.322 18.108 16.661-10.706ZM118 190.972C47.055 172.384 36.833 75.829 102.495 44.511c68.019-32.442 133.549 53.321 81.071 106.101-13.499 13.577-48.464 25.779-51.973 18.138-.316-.688-.381-.35-.145.75 4.233 19.709.793 25.203-13.448 21.472Zm12.294-8.222c-.113-4.537-.225-9.17-.25-10.294-.036-1.668-1.122-2.283-5.912-3.345-40.356-8.953-56.262-63.901-26.99-93.24 34.694-34.774 94.538-.182 77.672 44.896-5.291 14.142-32.719 30.354-41.829 24.724-.625-.387-.985 3.616-.985 10.95 0 14.638 10.636 15.864 34.768 4.008 69.45-34.122 19.842-142.068-54.268-118.085-72.05 23.316-67.885 127.32 5.873 146.657 12.41 3.254 12.162 3.384 11.921-6.271Zm.555-26.489c-.349-11.739-.349-11.739 9.151-12.992C192.64 136.322 184.885 64 131.5 64c-55.924 0-65.568 81.701-12 101.66 11.57 4.311 11.752 4.161 11.349-9.399Zm-6.69-13.207c-28.782-9.744-22.788-56.845 7.292-57.301 25.288-.384 30.271 32.562 5.424 35.858-4.875.647-4.875.647-4.875 10.895 0 12.465-.438 13.054-7.841 10.548Zm6.057-11.793c.284-10.74.284-10.74 4.912-11.4 23.772-3.391 20.527-32.124-3.628-32.124-27.162 0-33.29 43.746-7.5 53.536 5.528 2.098 5.912 1.479 6.216-10.012Z"/>
  </g>
</svg>
